<?xml version="1.0" standalone="no"?>
<!DOCTYPE svg PUBLIC "-//W3C//DTD SVG 20010904//EN"
 "http://www.w3.org/TR/2001/REC-SVG-20010904/DTD/svg10.dtd">
<svg version="1.0" xmlns="http://www.w3.org/2000/svg"
 width="1800.000000pt" height="1800.000000pt" viewBox="0 0 1800.000000 1800.000000"
 preserveAspectRatio="xMidYMid meet">
<metadata>
Created by potrace 1.14, written by Peter Selinger 2001-2017
</metadata>
<g transform="translate(0.000000,1800.000000) scale(0.100000,-0.100000)"
fill="#000000" stroke="none">
<path d="M5540 16984 c-141 -37 -262 -137 -324 -266 -74 -155 -69 -251 30
-573 27 -89 233 -811 239 -836 5 -23 26 -102 33 -119 3 -8 6 -19 8 -25 1 -5
91 -318 199 -695 108 -377 198 -692 199 -700 6 -23 65 -231 76 -265 23 -73
710 -2486 710 -2495 0 -7 -553 -10 -1605 -10 l-1605 0 -689 918 c-378 504
-704 931 -722 948 -52 49 -117 85 -194 110 l-70 23 -725 0 c-772 1 -755 2
-861 -48 -94 -44 -184 -148 -215 -246 -44 -141 -43 -148 200 -995 120 -415
219 -762 221 -770 2 -8 20 -71 40 -140 34 -116 65 -223 84 -295 5 -16 77 -268
161 -560 83 -291 162 -568 175 -615 13 -47 38 -132 55 -190 17 -58 33 -113 35
-122 4 -19 -21 -113 -160 -593 -47 -165 -88 -307 -90 -315 -8 -34 -147 -517
-156 -545 -13 -39 -89 -304 -94 -330 -7 -29 -46 -166 -56 -195 -9 -26 -139
-482 -166 -580 -8 -30 -44 -156 -80 -280 -36 -124 -69 -238 -73 -255 -4 -16
-31 -111 -61 -210 -47 -160 -52 -191 -53 -275 0 -76 4 -107 22 -154 54 -139
165 -238 305 -271 90 -22 1457 -21 1532 1 28 8 58 16 68 19 35 8 133 74 173
117 23 24 346 449 718 946 l676 902 1605 0 c883 0 1605 -2 1605 -5 0 -3 -50
-179 -111 -393 -61 -213 -115 -400 -119 -417 -4 -16 -49 -174 -100 -350 -51
-176 -96 -333 -100 -350 -4 -16 -45 -158 -90 -315 -45 -157 -83 -292 -85 -300
-5 -19 -209 -731 -235 -820 -11 -36 -87 -303 -170 -595 -84 -291 -172 -600
-196 -685 -25 -85 -46 -162 -48 -170 -2 -9 -54 -191 -116 -405 -62 -215 -116
-403 -120 -420 -4 -16 -17 -65 -29 -107 -58 -206 -16 -384 124 -523 33 -33 86
-72 117 -88 125 -60 84 -58 1165 -54 978 3 989 3 1064 25 192 55 333 136 460
263 92 92 126 141 259 374 56 99 110 194 120 210 9 17 153 269 320 560 167
292 311 544 320 560 9 17 126 221 260 455 134 234 253 443 266 465 12 22 44
78 71 125 27 47 52 92 56 100 4 8 16 29 26 45 11 17 29 46 39 66 11 20 110
193 220 385 109 192 210 369 224 394 14 25 48 83 75 130 27 47 52 92 56 100 4
8 15 29 26 45 10 17 28 48 41 70 34 60 71 126 94 167 12 20 45 78 75 130 30
51 63 109 74 128 84 150 179 318 187 330 13 22 148 258 174 305 13 22 67 117
121 210 54 94 112 195 128 225 17 30 41 72 54 93 l23 37 1843 0 c1013 1 1881
3 1929 5 76 4 245 24 330 40 62 11 75 14 128 25 446 96 938 297 1340 548 337
210 640 491 790 732 19 30 37 57 40 60 23 22 114 241 136 330 38 150 40 356 5
493 -65 254 -200 475 -434 710 -169 170 -369 325 -612 474 -131 80 -381 208
-525 268 -36 15 -78 33 -95 40 -217 97 -658 218 -905 250 -25 3 -61 9 -80 12
-19 4 -899 8 -1955 10 -1056 2 -1925 5 -1931 7 -6 2 -64 98 -129 213 -64 114
-126 220 -136 235 -11 15 -19 29 -19 32 0 2 -23 44 -51 93 -29 48 -63 108 -77
133 -13 25 -48 86 -77 135 -29 50 -63 110 -77 135 -14 25 -96 168 -182 318
-86 150 -156 276 -156 279 0 4 -6 14 -14 22 -7 9 -27 41 -43 71 -16 30 -42 74
-56 97 -15 24 -27 45 -27 47 0 5 -96 174 -208 366 -30 52 -64 111 -74 130 -10
19 -23 42 -28 50 -10 16 -131 226 -172 300 -14 25 -51 89 -82 142 -31 54 -56
100 -56 104 0 3 -13 25 -30 49 -16 24 -30 46 -30 48 0 4 -203 364 -229 407 -5
8 -76 132 -158 275 -81 142 -152 267 -158 276 -5 9 -26 44 -45 79 -19 35 -39
70 -45 79 -5 9 -28 48 -49 86 -51 90 -54 95 -185 323 -61 107 -111 196 -111
199 0 3 -8 17 -18 31 -11 15 -33 52 -49 82 -17 30 -54 96 -83 145 -62 107 -95
166 -125 220 -80 145 -213 367 -243 405 -152 195 -371 326 -622 375 -112 21
-1968 21 -2050 -1z"/>
</g>
</svg>
